PathFileType	4	(X/Y/Z)	/Users/itak/Documents/Research/Walk-IL/dataset/trc/00498_00183.trc
DataRate	CameraRate	NumFrames	NumMarkers	Units	OrigDataRate	OrigDataStartFrame	OrigNumFrames
100.000000	100.000000	4	56	mm	100.000000	169	677
Frame#	Time	RPSI			LPSI			L3			STRN			T10			C7			CLAV			RBAK			LBAK			LSHO			LUPA			LAEL			LAOL			LWTS			LWPS			LFRA			LIFD			LHPS			LHTS			RSHO			RUPA			RAEL			RAOL			RWTS			RWPS			RFRA			RIFD			RHTS			RHPS			RBHD			LFHD			RFHD			LBHD			LHIP			RHIP			RASI			LASI			LKNE			LTHI			LANK			LTIP			LTOE			LMT1			LMT5			LHEE			RKNE			RTHI			RANK			RTIP			RTOE			RMT1			RMT5			RHEE			*53			*54			*55			
		X1	Y1	Z1	X2	Y2	Z2	X3	Y3	Z3	X4	Y4	Z4	X5	Y5	Z5	X6	Y6	Z6	X7	Y7	Z7	X8	Y8	Z8	X9	Y9	Z9	X10	Y10	Z10	X11	Y11	Z11	X12	Y12	Z12	X13	Y13	Z13	X14	Y14	Z14	X15	Y15	Z15	X16	Y16	Z16	X17	Y17	Z17	X18	Y18	Z18	X19	Y19	Z19	X20	Y20	Z20	X21	Y21	Z21	X22	Y22	Z22	X23	Y23	Z23	X24	Y24	Z24	X25	Y25	Z25	X26	Y26	Z26	X27	Y27	Z27	X28	Y28	Z28	X29	Y29	Z29	X30	Y30	Z30	X31	Y31	Z31	X32	Y32	Z32	X33	Y33	Z33	X34	Y34	Z34	X35	Y35	Z35	X36	Y36	Z36	X37	Y37	Z37	X38	Y38	Z38	X39	Y39	Z39	X40	Y40	Z40	X41	Y41	Z41	X42	Y42	Z42	X43	Y43	Z43	X44	Y44	Z44	X45	Y45	Z45	X46	Y46	Z46	X47	Y47	Z47	X48	Y48	Z48	X49	Y49	Z49	X50	Y50	Z50	X51	Y51	Z51	X52	Y52	Z52	X53	Y53	Z53	X54	Y54	Z54	X55	Y55	Z55	X56	Y56	Z56	

170	1.69	-1082.941772460938	973.4449462890625	-462.0050048828125	-1011.122497558594	969.18017578125	-563.4159545898438	-1044.493408203125	1044.394409179688	-519.9254150390625	-850.73828125	1193.025512695312	-407.9718933105469	-1057.280639648438	1149.869750976562	-522.9024658203125	-1008.338623046875	1376.702270507812	-488.9360961914062	-878.0812377929688	1289.356201171875	-420.969970703125	-1098.279663085938	1257.22021484375	-443.7850036621094	-991.0262451171875	1326.8427734375	-580.7386474609375	-869.3314819335938	1367.207763671875	-597.6024780273438	-852.455810546875	1241.726806640625	-659.7030639648438	-840.4423217773438	1031.279418945312	-683.0538940429688	-938.6414184570312	1027.202758789062	-670.514892578125	-794.4967041015625	842.6790161132812	-598.7943725585938	-836.7054443359375	808.0397338867188	-675.7361450195312	-826.7891845703125	953.9752197265625	-675.359130859375	-802.6272583007812	685.8126220703125	-588.2666015625	-820.4567260742188	753.4852905273438	-657.7718505859375	-781.1058959960938	763.289306640625	-609.7388305664062	-1031.905883789062	1364.0068359375	-332.6767272949219	-1076.135620117188	1296.42431640625	-292.2560119628906	-1090.711547851562	1027.896362304688	-252.4303436279297	-1127.2099609375	1012.464965820312	-306.2892150878906	-976.2254638671875	830.8384399414062	-249.6222076416016	-1062.412475585938	804.1784057617188	-234.4912109375	-1087.312255859375	973.4834594726562	-244.8128814697266	-966.362548828125	671.646484375	-251.6781921386719	-966.6522827148438	736.8292236328125	-223.7877960205078	-1037.537719726562	731.24755859375	-227.143798828125	-1013.74169921875	1521.220336914062	-388.7276916503906	-830.7064208984375	1588.69677734375	-438.1517028808594	-900.7359619140625	1576.041137695312	-331.7930603027344	-939.1389770507812	1532.774536132812	-529.5836181640625	-849.7369995117188	889.9473266601562	-610.2507934570312	-1068.4150390625	874.8333740234375	-300.576171875	-946.3154296875	917.0965576171875	-299.8264770507812	-813.0941772460938	921.5135498046875	-502.1849975585938	-888.146240234375	466.3528747558594	-562.77490234375	-854.1530151367188	622.7677001953125	-578.474853515625	-1005.911499023438	48.45624542236328	-596.4825439453125	-923.6698608398438	316.9042663574219	-578.6093139648438	-871.2685546875	38.64667129516602	-440.9482727050781	-952.5348510742188	43.14921951293945	-456.1663208007812	-906.3323364257812	44.70258331298828	-547.6961669921875	-1079.138061523438	47.76187133789062	-568.6200561523438	-1025.523681640625	488.0657348632812	-299.1998596191406	-1043.564819335938	745.8878784179688	-276.4382934570312	-1126.188598632812	57.52848815917969	-333.86767578125	-1029.231079101562	341.2828674316406	-301.6847534179688	-925.8421020507812	45.08278656005859	-306.7222595214844	-975.8182373046875	49.92022323608398	-364.3405151367188	-1025.79150390625	47.84458160400391	-280.5682983398438	-1159.990966796875	53.63448715209961	-396.2471923828125	nan	nan	nan	nan	nan	nan	nan	nan	nan	
171	1.7	-1082.438110351562	973.1952514648438	-463.783935546875	-1010.057678222656	968.8546142578125	-564.7951049804688	-1043.420532226562	1044.619995117188	-521.360107421875	-849.7901000976562	1192.828735351562	-408.9223327636719	-1055.61376953125	1149.908203125	-524.104736328125	-1006.803466796875	1376.825561523438	-490.0103149414062	-876.9428100585938	1289.202758789062	-421.8380126953125	-1097.092651367188	1257.444091796875	-445.2632751464844	-989.4063110351562	1327.087646484375	-581.8491821289062	-867.4684448242188	1367.285400390625	-598.2750854492188	-850.7034301757812	1241.80859375	-660.4684448242188	-838.955322265625	1031.3447265625	-683.9291381835938	-937.0455322265625	1027.385009765625	-671.4490966796875	-793.2033081054688	842.8579711914062	-599.5225219726562	-835.595458984375	808.1290283203125	-676.4525146484375	-825.4452514648438	954.0169067382812	-676.1788330078125	-801.4419555664062	685.9872436523438	-588.6322021484375	-819.2186279296875	753.5629272460938	-658.29833984375	-779.5884399414062	763.5006713867188	-610.2188720703125	-1030.885131835938	1363.929809570312	-333.8707580566406	-1075.3681640625	1296.387451171875	-293.6555786132812	-1090.870239257812	1027.8720703125	-254.1865081787109	-1126.968627929688	1012.530700683594	-308.3533935546875	-976.4197387695312	830.9688110351562	-250.0899658203125	-1062.751342773438	804.1986083984375	-236.0113525390625	-1087.613403320312	973.470458984375	-246.5371551513672	-966.2464599609375	671.8223266601562	-251.8173980712891	-967.0538330078125	737.0174560546875	-223.9762115478516	-1037.847412109375	731.30419921875	-228.2525787353516	-1012.113220214844	1521.141479492188	-389.2399291992188	-828.770263671875	1588.31201171875	-437.9145812988281	-899.1367797851562	1575.483276367188	-331.8364562988281	-937.0677490234375	1532.961059570312	-529.8560791015625	-848.9484252929688	889.6533203125	-611.208984375	-1068.214965820312	875.1033325195312	-301.937255859375	-946.2874145507812	917.5170288085938	-300.9985961914062	-812.3654174804688	921.4218139648438	-502.8808898925781	-887.4970092773438	466.1695556640625	-563.191650390625	-853.36572265625	622.549072265625	-578.8953857421875	-1005.840698242188	48.39225387573242	-596.5398559570312	-923.2970581054688	316.7395324707031	-578.906005859375	-871.2987060546875	38.61927795410156	-440.919921875	-952.422119140625	43.195068359375	-456.1435241699219	-906.319580078125	44.70291519165039	-547.685546875	-1079.143188476562	47.74646377563477	-568.683349609375	-1021.808471679688	488.5782165527344	-299.3143310546875	-1042.7490234375	745.9518432617188	-277.5037231445312	-1125.752197265625	58.88135147094727	-333.615966796875	-1026.175903320312	341.9441223144531	-300.9416198730469	-925.6810302734375	45.13430404663086	-306.5091857910156	-975.5584716796875	50.22910308837891	-364.1589660644531	-1025.503295898438	48.14815139770508	-280.3251953125	-1159.599365234375	55.67891693115234	-396.0160522460938	nan	nan	nan	nan	nan	nan	nan	nan	nan	
172	1.71	-1081.929931640625	972.972900390625	-465.5536499023438	-1009.137878417969	968.62548828125	-566.2366943359375	-1042.372924804688	1044.851928710938	-522.8065185546875	-848.8394165039062	1192.647583007812	-409.8509521484375	-1053.906127929688	1149.923583984375	-525.2642822265625	-1005.277770996094	1376.962646484375	-491.0806274414062	-875.8128662109375	1289.071655273438	-422.6921691894531	-1095.914428710938	1257.686401367188	-446.7392883300781	-987.81640625	1327.3505859375	-582.960693359375	-865.59716796875	1367.366088867188	-598.9283447265625	-848.9815063476562	1241.897827148438	-661.2197265625	-837.5136108398438	1031.41259765625	-684.7784423828125	-935.5237426757812	1027.57177734375	-672.3671875	-791.9599609375	843.025390625	-600.2450561523438	-834.5188598632812	808.2239990234375	-677.15771484375	-824.1279296875	954.0718994140625	-676.9741821289062	-800.2591552734375	686.165771484375	-589.02294921875	-818.0438232421875	753.6351928710938	-658.8432006835938	-777.96142578125	763.7381591796875	-610.6659545898438	-1029.877319335938	1363.8779296875	-335.0591125488281	-1074.610961914062	1296.382202148438	-295.0487365722656	-1091.025024414062	1027.883666992188	-255.9252777099609	-1126.713623046875	1012.630004882812	-310.3951110839844	-976.645751953125	831.1044311523438	-250.5119476318359	-1063.120361328125	804.2478637695312	-237.4930267333984	-1087.901733398438	973.492919921875	-248.2432708740234	-966.2286376953125	671.9903564453125	-251.9303283691406	-967.5381469726562	737.2133178710938	-224.1147613525391	-1038.216186523438	731.38720703125	-229.3209686279297	-1010.476318359375	1521.085571289062	-389.7555847167969	-826.8458862304688	1587.910888671875	-437.6609802246094	-897.5232543945312	1574.918579101562	-331.8589477539062	-934.9966430664062	1533.171630859375	-530.107177734375	-848.1246337890625	889.34765625	-612.1163330078125	-1067.961547851562	875.4298095703125	-303.2215576171875	-946.2528686523438	917.9765625	-302.1706848144531	-811.6375122070312	921.3145141601562	-503.5748901367188	-886.8624267578125	466.0003356933594	-563.5916748046875	-852.5777587890625	622.346435546875	-579.30126953125	-1005.781616210938	48.34214401245117	-596.5825805664062	-922.9053955078125	316.5956726074219	-579.153564453125	-871.3258666992188	38.59183883666992	-440.8914794921875	-952.3414306640625	43.20425033569336	-456.114501953125	-906.3160400390625	44.70788192749023	-547.66455078125	-1079.15625	47.73621368408203	-568.7320556640625	-1017.955871582031	489.1914672851562	-299.2714538574219	-1041.950805664062	746.1304321289062	-278.5818176269531	-1125.27685546875	60.39475631713867	-333.3024597167969	-1023.042541503906	342.7398071289062	-300.1072998046875	-925.5171508789062	45.20783615112305	-306.2517395019531	-975.282958984375	50.62160110473633	-363.9197692871094	-1025.19921875	48.48157501220703	-280.0166320800781	-1159.153686523438	57.92672729492188	-395.7334899902344	nan	nan	nan	nan	nan	nan	nan	nan	nan	
173	1.72	-1081.417236328125	972.7825317382812	-467.2996826171875	-1008.308471679688	968.4620361328125	-567.7141723632812	-1041.345458984375	1045.089233398438	-524.2652587890625	-847.8887939453125	1192.482543945312	-410.747314453125	-1052.214721679688	1149.951904296875	-526.4085693359375	-1003.762023925781	1377.113037109375	-492.1450500488281	-874.691162109375	1288.96337890625	-423.5231018066406	-1094.746337890625	1257.946533203125	-448.2163391113281	-986.2517700195312	1327.629638671875	-584.0742797851562	-863.718505859375	1367.45068359375	-599.561279296875	-847.2764282226562	1241.994384765625	-661.9492797851562	-836.1110229492188	1031.483520507812	-685.5946044921875	-934.0642700195312	1027.766357421875	-673.2626953125	-790.752197265625	843.1834716796875	-600.9530029296875	-833.4436645507812	808.3223266601562	-677.8467407226562	-822.832763671875	954.1390991210938	-677.737060546875	-799.09619140625	686.3426513671875	-589.4508666992188	-816.9287109375	753.7039184570312	-659.4091796875	-776.3173828125	763.9775390625	-611.104248046875	-1028.885009765625	1363.853515625	-336.240966796875	-1073.867797851562	1296.411010742188	-296.4368896484375	-1091.166625976562	1027.933837890625	-257.6314392089844	-1126.444213867188	1012.763000488281	-312.3937377929688	-976.8895263671875	831.2506103515625	-250.8995971679688	-1063.49951171875	804.3323364257812	-238.9201507568359	-1088.165771484375	973.5560913085938	-249.9170837402344	-966.2928466796875	672.153564453125	-252.0147094726562	-968.0784912109375	737.42138671875	-224.2152709960938	-1038.62255859375	731.501953125	-230.3388214111328	-1008.838989257812	1521.05615234375	-390.2786865234375	-824.93603515625	1587.490234375	-437.3893127441406	-895.9025268554688	1574.345581054688	-331.8575439453125	-932.9306030273438	1533.409912109375	-530.3387451171875	-847.2410278320312	889.0369262695312	-612.9622802734375	-1067.629150390625	875.7842407226562	-304.412353515625	-946.204833984375	918.4697265625	-303.3440856933594	-810.9038696289062	921.1948852539062	-504.270263671875	-886.2413940429688	465.842529296875	-563.9608764648438	-851.7735595703125	622.1593017578125	-579.68701171875	-1005.737915039062	48.30594635009766	-596.60986328125	-922.4954833984375	316.4537658691406	-579.3419799804688	-871.3530883789062	38.56436157226562	-440.8572082519531	-952.302490234375	43.17075347900391	-456.0793151855469	-906.32568359375	44.71433639526367	-547.63232421875	-1079.177612304688	47.72776794433594	-568.7688598632812	-1013.962829589844	489.9069519042969	-299.041748046875	-1041.180053710938	746.4795532226562	-279.6852722167969	-1124.75732421875	62.07871627807617	-332.9319763183594	-1019.812377929688	343.6615905761719	-299.180908203125	-925.3547973632812	45.3010139465332	-305.9323425292969	-974.9846801757812	51.10275268554688	-363.6107482910156	-1024.887451171875	48.84048843383789	-279.6471862792969	-1158.639892578125	60.38558197021484	-395.4085388183594	nan	nan	nan	nan	nan	nan	nan	nan	nan	
